:FULLY-SPECIFIED
:FORCE-ALL-JOINTS-BE-3DOF
:DEGREES
108
root -3.43297 17.1584 -8.85636 0.122495 1.24358 -3.83668
lfemur -23.6057 1.30575 -17.9835
ltibia 55.3937 0 0
lfoot -6.58525 1.55377 -0.0138985
ltoes 3.18425 0 0
rfemur -3.17408 7.54628 22.8449
rtibia 22.994 0 0
rfoot -10.0736 1.18275 0.0300835
rtoes -6.51214 0 0
lowerback 7.89206 -1.23884 2.82696
upperback -0.202249 -1.17099 4.41545
thorax -4.54784 -0.592669 3.19334
lowerneck -14.0592 -2.83579 -8.24436
upperneck 23.2234 -2.46175 2.07368
head 9.84272 -1.59919 1.80215
lclavicle 1.48368e-14 -2.01965e-14 1.94083e-32
lhumerus -31.651 8.79204 85.8286
lradius 30.6594 0 0
lwrist -6.67557 0 0
lhand -14.7724 26.992 0.018854
lfingers 7.12502 0 0
lthumb 11.384 56.6581 0.0172206
rclavicle 1.48368e-14 -2.01965e-14 1.94083e-32
rhumerus -39.1774 -15.1732 -72.318
rradius 33.6612 0 0
rwrist 7.55074 0 0
rhand -16.1199 10.0115 0.0038583
rfingers 7.12502 0 0
rthumb 10.0844 -19.7265 0.00377794
109
root -3.44679 17.1654 -8.63903 0.137418 1.88461 -4.41906
lfemur -24.8489 1.74595 -17.5607
ltibia 55.5413 0 0
lfoot -7.09009 1.6439 0.0128574
ltoes 2.32379 0 0
rfemur -2.95797 7.63531 23.4004
rtibia 24.0534 0 0
rfoot -10.1852 1.19988 0.0643523
rtoes -8.69367 0 0
lowerback 7.84219 -1.39091 3.30013
upperback -0.122631 -1.3181 4.71824
thorax -4.42797 -0.672485 3.2627
lowerneck -14.2064 -2.70853 -8.60172
upperneck 22.9229 -2.2086 2.17599
head 9.76113 -1.49457 1.92252
lclavicle 4.71815e-14 1.12115e-14 -4.43623e-31
lhumerus -31.6818 9.23225 86.0597
lradius 30.3374 0 0
lwrist -6.65653 0 0
lhand -14.7201 27.196 0.0389696
lfingers 7.12502 0 0
lthumb 11.434 56.8517 0.0350573
rclavicle 4.71815e-14 1.12115e-14 -4.43623e-31
rhumerus -38.5097 -14.8833 -72.4657
rradius 33.6123 0 0
rwrist 7.38103 0 0
rhand -16.1437 10.2363 0.00484687
rfingers 7.12502 0 0
rthumb 10.0616 -19.5026 0.00477366
110
root -3.46037 17.1748 -8.41416 0.109266 2.68423 -4.63858
lfemur -25.8913 2.31127 -17.6924
ltibia 55.47 0 0
lfoot -8.41401 1.43622 0.0169912
ltoes 1.14037 0 0
rfemur -2.76392 7.60274 23.5483
rtibia 25.3902 0 0
rfoot -10.7061 1.32486 0.124882
rtoes -11.8099 0 0
lowerback 7.82851 -1.51969 3.36115
upperback -0.237882 -1.46838 4.87659
thorax -4.52893 -0.74592 3.41314
lowerneck -13.7098 -2.57316 -8.70755
upperneck 22.514 -2.04826 2.16008
head 9.52198 -1.42061 1.94706
lclavicle 5.3473e-14 5.64549e-15 2.3535e-30
lhumerus -32.1575 9.41622 86.233
lradius 29.9265 0 0
lwrist -6.586 0 0
lhand -15.0482 26.2757 0.050708
lfingers 7.12502 0 0
lthumb 11.1175 55.9473 0.0461419
rclavicle 5.3473e-14 5.64549e-15 2.3535e-30
rhumerus -38.367 -14.6193 -72.5371
rradius 33.6904 0 0
rwrist 7.04927 0 0
rhand -16.3982 11.2378 0.00510457
rfingers 7.12502 0 0
rthumb 9.81589 -18.5113 0.00527933
111
root -3.4696 17.1926 -8.18853 0.134013 3.52766 -4.44527
lfemur -26.8018 2.86524 -18.3697
ltibia 55.1671 0 0
lfoot -9.62147 0.8579 0.00251554
ltoes -0.057975 0 0
rfemur -2.67372 7.60158 23.1715
rtibia 26.8231 0 0
rfoot -9.86327 1.78309 0.18785
rtoes -10.356 0 0
lowerback 7.77617 -1.59428 3.02032
upperback -0.374646 -1.59549 4.85909
thorax -4.64078 -0.79975 3.58696
lowerneck -14.4483 -2.77083 -8.33176
upperneck 23.2809 -2.2045 1.59443
head 9.9381 -1.53762 1.66582
lclavicle 3.42357e-14 -2.18663e-14 -2.34265e-31
lhumerus -32.6395 9.34979 86.3826
lradius 29.5598 0 0
lwrist -6.41014 0 0
lhand -15.762 26.0787 0.0321709
lfingers 7.12502 0 0
lthumb 10.4291 55.788 0.0287791
rclavicle 3.42357e-14 -2.18663e-14 -2.34265e-31
rhumerus -38.5018 -14.421 -72.6907
rradius 34.1167 0 0
rwrist 6.47826 0 0
rhand -16.9246 12.4706 -0.00150245
rfingers 7.12502 0 0
rthumb 9.30795 -17.3006 -0.000914161
112
root -3.47919 17.2006 -7.96955 0.0530996 4.25847 -4.38944
lfemur -27.6869 3.38409 -18.8436
ltibia 54.7381 0 0
lfoot -10.8149 0.10733 -0.0119909
ltoes -1.92833 0 0
rfemur -2.62267 7.74144 23.0235
rtibia 28.2314 0 0
rfoot -9.04396 2.08573 0.290221
rtoes -8.4773 0 0
lowerback 7.86009 -1.6189 2.84273
upperback -0.423343 -1.63361 4.87764
thorax -4.75585 -0.811702 3.70408
lowerneck -14.1972 -2.72234 -8.3518
upperneck 22.7268 -2.21173 1.76207
head 9.70939 -1.51119 1.71737
lclavicle 5.23151e-14 -9.93925e-15 2.28291e-30
lhumerus -32.9975 9.15711 86.5525
lradius 29.3812 0 0
lwrist -6.13061 0 0
lhand -16.2959 26.587 0.0283601
lfingers 7.12502 0 0
lthumb 9.9137 56.3132 0.0236045
rclavicle 5.23151e-14 -9.93925e-15 2.28291e-30
rhumerus -38.4521 -14.4297 -72.7837
rradius 34.5056 0 0
rwrist 6.12129 0 0
rhand -17.1286 12.9813 -0.00374633
rfingers 7.12502 0 0
rthumb 9.11107 -16.7988 -0.00310889
113
root -3.49223 17.2033 -7.75145 -0.0894914 4.96637 -4.58333
lfemur -28.5724 3.60466 -18.9255
ltibia 54.2299 0 0
lfoot -11.6836 -0.284409 -0.0160634
ltoes -2.15949 0 0
rfemur -2.52015 8.08915 23.2154
rtibia 29.5145 0 0
rfoot -8.2031 2.28944 0.425207
rtoes -7.19614 0 0
lowerback 7.82358 -1.63918 2.91834
upperback -0.29413 -1.6549 4.96767
thorax -4.60895 -0.821601 3.75368
lowerneck -14.6132 -2.88974 -8.37979
upperneck 22.6044 -2.39038 1.7225
head 9.76003 -1.5964 1.68457
lclavicle 4.17448e-14 -2.75118e-14 4.78812e-30
lhumerus -33.076 9.25605 86.63
lradius 29.004 0 0
lwrist -6.06727 0 0
lhand -15.8092 26.5886 0.0534785
lfingers 7.12502 0 0
lthumb 10.383 56.2872 0.0467214
rclavicle 4.17448e-14 -2.75118e-14 4.78812e-30
rhumerus -38.1293 -14.4814 -72.9412
rradius 34.9687 0 0
rwrist 5.98044 0 0
rhand -17.1787 12.0204 0.00316317
rfingers 7.12502 0 0
rthumb 9.06289 -17.7627 0.00338409
114
root -3.50246 17.2059 -7.5333 -0.290071 5.68763 -4.79445
lfemur -29.2307 3.77953 -18.9714
ltibia 53.5895 0 0
lfoot -11.7862 0.104473 -0.0277669
ltoes -1.5302 0 0
rfemur -2.30687 8.41969 23.3931
rtibia 30.623 0 0
rfoot -7.38462 2.77091 0.57412
rtoes -6.98644 0 0
lowerback 7.7849 -1.71412 2.99169
upperback -0.0833806 -1.75575 5.05588
thorax -4.36243 -0.871329 3.80819
lowerneck -15.2731 -3.06017 -8.56057
upperneck 22.7445 -2.54182 1.84174
head 9.94287 -1.67011 1.73378
lclavicle 3.15073e-15 -1.145e-14 -3.02408e-31
lhumerus -32.9988 9.97347 86.4496
lradius 27.9573 0 0
lwrist -6.21568 0 0
lhand -16.3643 23.4489 0.122125
lfingers 7.12502 0 0
lthumb 9.8474 53.1698 0.112378
rclavicle 3.15073e-15 -1.145e-14 -3.02408e-31
rhumerus -37.8554 -14.3891 -73.2338
rradius 35.6646 0 0
rwrist 5.52833 0 0
rhand -17.2001 11.3268 0.00400275
rfingers 7.12502 0 0
rthumb 9.04226 -18.4584 0.00401779
115
root -3.50838 17.212 -7.31726 -0.448329 6.30616 -4.85102
lfemur -29.8397 4.04124 -19.2226
ltibia 52.8259 0 0
lfoot -11.9864 0.319243 -0.0599873
ltoes -1.1639 0 0
rfemur -2.14028 8.53795 23.3435
rtibia 31.5346 0 0
rfoot -6.93952 3.4845 0.730548
rtoes -6.84296 0 0
lowerback 7.80812 -1.78314 2.97693
upperback 0.00339786 -1.84752 5.07339
thorax -4.28366 -0.915965 3.85238
lowerneck -15.5665 -3.14143 -8.91003
upperneck 22.7771 -2.62571 2.22594
head 10.0202 -1.69564 1.91315
lclavicle -3.71926e-14 1.69365e-14 1.20123e-30
lhumerus -33.1659 10.1231 86.4656
lradius 27.5081 0 0
lwrist -5.79958 0 0
lhand -17.1232 22.7078 0.130678
lfingers 7.12502 0 0
lthumb 9.11519 52.4614 0.120824
rclavicle -3.71926e-14 1.69365e-14 1.20123e-30
rhumerus -37.8318 -14.1294 -73.562
rradius 36.3707 0 0
rwrist 4.57406 0 0
rhand -17.2099 11.3803 0.00425611
rfingers 7.12502 0 0
rthumb 9.03275 -18.4052 0.00426924
116
root -3.50809 17.2172 -7.103 -0.482029 6.72033 -4.87933
lfemur -30.4681 4.32021 -19.5719
ltibia 51.9317 0 0
lfoot -12.5039 0.305462 -0.085639
ltoes 0.015044 0 0
rfemur -2.10054 8.55942 23.2286
rtibia 32.3594 0 0
rfoot -6.85827 4.18019 0.806464
rtoes -7.52125 0 0
lowerback 7.8276 -1.75194 2.97843
upperback -0.0423613 -1.79616 5.0831
thorax -4.3542 -0.890067 3.87073
lowerneck -15.2949 -3.12173 -8.89192
upperneck 22.468 -2.63737 2.2818
head 9.85429 -1.69076 1.93613
lclavicle -3.21633e-14 -2.54444e-15 1.07059e-30
lhumerus -33.5601 9.97861 86.5245
lradius 27.2445 0 0
lwrist -5.64 0 0
lhand -17.4519 22.8468 0.142998
lfingers 7.12502 0 0
lthumb 8.79796 52.6105 0.132218
rclavicle -3.21633e-14 -2.54444e-15 1.07059e-30
rhumerus -38.0675 -13.6214 -73.8366
rradius 37.2206 0 0
rwrist 3.20665 0 0
rhand -17.3337 10.928 0.00438525
rfingers 7.12502 0 0
rthumb 8.9133 -18.8622 0.00445981
117
root -3.50152 17.2176 -6.89182 -0.550016 7.01571 -5.16955
lfemur -30.8752 4.64618 -19.7256
ltibia 50.8561 0 0
lfoot -12.7834 0.642227 -0.0957051
ltoes 0.897684 0 0
rfemur -1.9652 8.70014 23.461
rtibia 33.1926 0 0
rfoot -7.21749 4.55316 0.757086
rtoes -7.71174 0 0
lowerback 7.88434 -1.67553 3.21355
upperback -0.0514498 -1.66418 5.13606
thorax -4.41526 -0.827168 3.77808
lowerneck -15.3498 -3.21643 -8.98846
upperneck 22.4551 -2.76767 2.42468
head 9.866 -1.74598 1.98795
lclavicle -1.5217e-14 -1.31198e-14 -3.11383e-32
lhumerus -33.8475 9.95975 86.5013
lradius 26.9038 0 0
lwrist -5.96933 0 0
lhand -16.9631 22.8367 0.139525
lfingers 7.12502 0 0
lthumb 9.26969 52.5818 0.128976
rclavicle -1.5217e-14 -1.31198e-14 -3.11383e-32
rhumerus -38.3585 -13.366 -74.014
rradius 38.09 0 0
rwrist 2.11876 0 0
rhand -17.5281 10.6576 0.00340216
rfingers 7.12502 0 0
rthumb 8.72567 -19.1388 0.0037679
